<svg xmlns="http://www.w3.org/2000/svg" viewBox="0 0 100 40" width="100" height="40">
<title>Ship</title>
<defs><clipPath id="ship-clip"><path d="M9,20 C9,10.5 17,5.5 30,5.5 L54,5.5 C70,5.5 84,12 92,20 C84,28 70,34.5 54,34.5 L30,34.5 C17,34.5 9,29.5 9,20 Z"/></clipPath><linearGradient id="ship-sym" x1="0" y1="0" x2="0" y2="1"><stop offset="0" stop-color="#000" stop-opacity="0.18"/><stop offset="0.35" stop-color="#000" stop-opacity="0"/><stop offset="0.65" stop-color="#000" stop-opacity="0"/><stop offset="1" stop-color="#000" stop-opacity="0.18"/></linearGradient><linearGradient id="ship-sail" x1="0" y1="0" x2="1" y2="0"><stop offset="0" stop-color="#e3d8bc" stop-opacity="1"/><stop offset="1" stop-color="#f8f2e2" stop-opacity="1"/></linearGradient></defs>
<path d="M9,20 C9,10.5 17,5.5 30,5.5 L54,5.5 C70,5.5 84,12 92,20 C84,28 70,34.5 54,34.5 L30,34.5 C17,34.5 9,29.5 9,20 Z" fill="currentColor"/>
<g clip-path="url(#ship-clip)">
<rect x="0" y="0" width="100" height="40" fill="#fff" fill-opacity=".14"/>
<path d="M16,20 C16,14.5 21,11.5 30,11.5 L54,11.5 C66,11.5 76,15 82,20 C76,25 66,28.5 54,28.5 L30,28.5 C21,28.5 16,25.5 16,20 Z" fill="#000" fill-opacity=".2"/>
<rect x="0" y="6" width="100" height="28" fill="url(#ship-sym)"/>
<path d="M45,4.5 Q71,20 45,35.5 L36,35.5 Q50,20 36,4.5 Z" fill="url(#ship-sail)" stroke="#1d140c" stroke-opacity=".75" stroke-width="2.4" stroke-linejoin="round"/>
<path d="M36.8,6.5 Q49.2,20 36.8,33.5" fill="none" stroke="#3b2614" stroke-width="2.4" stroke-linecap="round"/>
<circle cx="43.2" cy="20" r="3" fill="#3b2614"/>
<path d="M9,20 C9,10.5 17,5.5 30,5.5 L54,5.5 C70,5.5 84,12 92,20 C84,28 70,34.5 54,34.5 L30,34.5 C17,34.5 9,29.5 9,20 Z" fill="none" stroke="#fff" stroke-opacity=".65" stroke-width="6" stroke-linejoin="round"/>
</g>
<path d="M9,20 C9,10.5 17,5.5 30,5.5 L54,5.5 C70,5.5 84,12 92,20 C84,28 70,34.5 54,34.5 L30,34.5 C17,34.5 9,29.5 9,20 Z" fill="none" stroke="#1d140c" stroke-width="3.6" stroke-linejoin="round" stroke-linecap="round"/>
</svg>
